<svg width="110.000000" height="110.000000" viewBox="0 0 110 110" fill="none" xmlns="http://www.w3.org/2000/svg" xmlns:xlink="http://www.w3.org/1999/xlink">
	<desc>
			Created with Pixso.
	</desc>
	<defs/>
	<g opacity="0.050000">
		<circle id="Ellipse 1" cx="55.000000" cy="55.000000" r="55.000000" fill="#000000" fill-opacity="1.000000"/>
	</g>
	<g opacity="0.900000">
		<rect id="Frame 18625240" rx="-0.599943" width="46.795528" height="46.795506" transform="translate(31.603849 31.602385)" fill="#FFFFFF" fill-opacity="0"/>
		<path id="Vector" d="M35.8 40.64C35.8 43.26 37.95 45.4 40.6 45.4C43.25 45.4 45.4 43.26 45.4 40.64C45.4 38.31 41.73 32.08 41.31 31.37C41.01 30.87 40.18 30.87 39.89 31.37C39.47 32.08 35.8 38.31 35.8 40.64ZM37.87 41.25Q37.8 40.95 37.8 40.64Q37.8 40.47 37.9 40.1Q38.01 39.64 38.25 39.02Q38.68 37.87 39.47 36.29Q39.98 35.27 40.6 34.16Q41.21 35.27 41.72 36.29Q42.51 37.87 42.95 39.02Q43.19 39.64 43.3 40.1Q43.4 40.47 43.4 40.64Q43.4 40.95 43.33 41.24Q43.28 41.48 43.18 41.7Q43.1 41.9 42.99 42.08Q42.82 42.35 42.58 42.58Q42.38 42.78 42.14 42.94Q41.93 43.08 41.69 43.18Q41.48 43.27 41.25 43.32Q40.94 43.4 40.6 43.4Q40.26 43.4 39.94 43.32Q39.72 43.27 39.51 43.18Q39.27 43.08 39.05 42.94Q38.82 42.78 38.61 42.58Q38.38 42.35 38.21 42.08Q38.1 41.9 38.02 41.7Q37.92 41.48 37.87 41.25Z" fill="#B01736" fill-opacity="1.000000" fill-rule="evenodd"/>
		<path id="Rectangle 9048" d="M38.2 43.95C36.87 43.95 35.8 45.03 35.8 46.35L35.8 59.4L37.8 59.4L43.4 59.4L45.4 59.4L45.4 46.35C45.4 45.03 44.32 43.95 43 43.95L38.2 43.95ZM43.4 57.4L43.4 46.35Q43.4 46.27 43.37 46.2Q43.34 46.13 43.28 46.07Q43.22 46.01 43.15 45.98Q43.08 45.95 43 45.95L38.2 45.95Q38.12 45.95 38.05 45.98Q37.98 46.01 37.92 46.07Q37.86 46.13 37.83 46.2Q37.8 46.27 37.8 46.35L37.8 57.4L43.4 57.4Z" fill="#B01736" fill-opacity="1.000000" fill-rule="evenodd"/>
		<path id="Rectangle 9049" d="M52.6 43.95C51.27 43.95 50.2 45.03 50.2 46.35L50.2 59.4L52.2 59.4L57.8 59.4L59.8 59.4L59.8 46.35C59.8 45.03 58.72 43.95 57.4 43.95L52.6 43.95ZM57.8 57.4L57.8 46.35Q57.8 46.27 57.77 46.2Q57.74 46.13 57.68 46.07Q57.62 46.01 57.55 45.98Q57.48 45.95 57.4 45.95L52.6 45.95Q52.52 45.95 52.44 45.98Q52.37 46.01 52.32 46.07Q52.26 46.13 52.23 46.2Q52.2 46.27 52.2 46.35L52.2 57.4L57.8 57.4Z" fill="#B01736" fill-opacity="1.000000" fill-rule="evenodd"/>
		<path id="Vector" d="M55 45.4C52.35 45.4 50.2 43.26 50.2 40.64C50.2 38.31 53.87 32.08 54.28 31.37C54.58 30.87 55.41 30.87 55.71 31.37C56.13 32.08 59.8 38.31 59.8 40.64C59.8 43.26 57.64 45.4 55 45.4ZM52.27 41.25Q52.2 40.95 52.2 40.64Q52.2 40.47 52.29 40.1Q52.41 39.64 52.65 39.02Q53.08 37.87 53.87 36.29Q54.38 35.27 55 34.16Q55.61 35.27 56.12 36.29Q56.91 37.87 57.35 39.02Q57.58 39.64 57.7 40.1Q57.8 40.47 57.8 40.64Q57.8 40.95 57.73 41.25Q57.68 41.48 57.58 41.7Q57.5 41.9 57.39 42.08Q57.22 42.35 56.98 42.58Q56.78 42.78 56.54 42.94Q56.33 43.08 56.09 43.18Q55.88 43.27 55.65 43.32Q55.33 43.4 55 43.4Q54.66 43.4 54.34 43.32Q54.12 43.27 53.91 43.18Q53.67 43.08 53.45 42.94Q53.22 42.78 53.01 42.58Q52.78 42.35 52.61 42.08Q52.5 41.9 52.41 41.7Q52.32 41.48 52.27 41.25Z" fill="#B01736" fill-opacity="1.000000" fill-rule="evenodd"/>
		<path id="Rectangle 9050" d="M67 43.95C65.67 43.95 64.6 45.03 64.6 46.35L64.6 59.4L66.6 59.4L72.2 59.4L74.2 59.4L74.2 46.35C74.2 45.03 73.12 43.95 71.8 43.95L67 43.95ZM72.2 57.4L72.2 46.35Q72.2 46.27 72.17 46.2Q72.14 46.13 72.08 46.07Q72.02 46.01 71.95 45.98Q71.88 45.95 71.8 45.95L67 45.95Q66.91 45.95 66.84 45.98Q66.77 46.01 66.71 46.07Q66.66 46.13 66.63 46.2Q66.6 46.27 66.6 46.35L66.6 57.4L72.2 57.4Z" fill="#B01736" fill-opacity="1.000000" fill-rule="evenodd"/>
		<path id="Vector" d="M64.6 40.64C64.6 43.26 66.75 45.4 69.4 45.4C72.04 45.4 74.2 43.26 74.2 40.64C74.2 38.31 70.53 32.08 70.11 31.37C69.81 30.87 68.98 30.87 68.68 31.37C68.27 32.08 64.6 38.31 64.6 40.64ZM66.66 41.25Q66.6 40.95 66.6 40.64Q66.6 40.47 66.69 40.1Q66.81 39.64 67.05 39.02Q67.48 37.87 68.27 36.29Q68.78 35.27 69.4 34.16Q70.01 35.27 70.52 36.29Q71.31 37.87 71.75 39.02Q71.98 39.64 72.1 40.1Q72.2 40.47 72.2 40.64Q72.2 40.95 72.13 41.24Q72.08 41.48 71.98 41.7Q71.9 41.9 71.78 42.08Q71.61 42.35 71.38 42.58Q71.18 42.78 70.94 42.94Q70.73 43.08 70.49 43.18Q70.27 43.27 70.05 43.32Q69.73 43.4 69.4 43.4Q69.06 43.4 68.74 43.32Q68.52 43.27 68.3 43.18Q68.06 43.08 67.85 42.94Q67.62 42.78 67.41 42.58Q67.18 42.35 67.01 42.08Q66.9 41.9 66.81 41.7Q66.72 41.48 66.66 41.25Z" fill="#B01736" fill-opacity="1.000000" fill-rule="evenodd"/>
		<path id="Vector" d="M79.08 68.27L76.99 69.89Q76.47 70.3 75.79 70.51Q75.16 70.71 74.48 70.7Q73.8 70.7 73.17 70.51Q72.5 70.3 71.97 69.89L69.89 68.27Q69.87 68.25 69.81 68.24Q69.73 68.21 69.64 68.21Q69.54 68.21 69.46 68.24Q69.41 68.25 69.38 68.27L67.3 69.89Q66.77 70.3 66.1 70.51Q65.47 70.71 64.79 70.71Q64.11 70.71 63.48 70.51Q62.81 70.3 62.28 69.89L60.2 68.27Q60.17 68.25 60.12 68.24Q60.04 68.21 59.94 68.21Q59.85 68.21 59.77 68.24Q59.71 68.25 59.69 68.27L57.61 69.89Q57.09 70.29 56.43 70.5Q55.79 70.71 55.1 70.71Q54.4 70.71 53.76 70.5Q53.1 70.29 52.58 69.89L50.5 68.27Q50.48 68.25 50.42 68.24Q50.34 68.21 50.25 68.21Q50.15 68.21 50.07 68.24Q50.02 68.25 49.99 68.27L47.91 69.89Q47.39 70.3 46.71 70.51Q46.08 70.71 45.4 70.71Q44.72 70.71 44.09 70.51Q43.42 70.3 42.89 69.89L40.81 68.27Q40.79 68.25 40.73 68.24Q40.65 68.21 40.56 68.21Q40.46 68.21 40.38 68.24Q40.32 68.25 40.3 68.27L38.22 69.89Q37.7 70.29 37.02 70.5Q36.39 70.69 35.71 70.69Q35.03 70.69 34.4 70.5Q33.72 70.29 33.2 69.89L31.12 68.27L32.34 66.69L34.42 68.31Q34.65 68.48 34.98 68.58Q35.32 68.69 35.71 68.69Q36.09 68.69 36.44 68.58Q36.77 68.48 36.99 68.31L39.08 66.69Q39.39 66.45 39.8 66.32Q40.16 66.21 40.55 66.21Q40.95 66.21 41.31 66.32Q41.72 66.45 42.04 66.69L44.12 68.31Q44.36 68.5 44.69 68.6Q45.03 68.71 45.4 68.71Q45.78 68.71 46.11 68.6Q46.44 68.49 46.69 68.31L48.77 66.69Q49.09 66.45 49.49 66.32Q49.86 66.21 50.25 66.21Q50.64 66.21 51 66.32Q51.41 66.45 51.73 66.69L53.81 68.31Q54.05 68.49 54.37 68.6Q54.71 68.71 55.1 68.71Q55.48 68.71 55.82 68.6Q56.14 68.49 56.38 68.31L58.46 66.69Q58.78 66.45 59.19 66.32Q59.55 66.21 59.94 66.21Q60.34 66.21 60.7 66.32Q61.11 66.45 61.42 66.69L63.5 68.31Q63.75 68.5 64.08 68.6Q64.42 68.71 64.79 68.71Q65.16 68.71 65.5 68.6Q65.83 68.49 66.08 68.31L68.16 66.69Q68.47 66.45 68.88 66.32Q69.25 66.21 69.64 66.21Q70.03 66.21 70.39 66.32Q70.8 66.45 71.12 66.69L73.2 68.31Q73.44 68.49 73.77 68.6Q74.11 68.7 74.48 68.7Q74.86 68.7 75.19 68.6Q75.52 68.49 75.77 68.31L77.85 66.69L79.08 68.27Z" fill="#B01736" fill-opacity="1.000000" fill-rule="evenodd"/>
		<rect id="Rectangle 9051" x="32.003906" y="58.474609" rx="4.799541" width="45.995415" height="19.522650" stroke="#B01736" stroke-opacity="1.000000" stroke-width="2.000000"/>
	</g>
</svg>
