<svg width="110.000000" height="110.000000" viewBox="0 0 110 110" fill="none" xmlns="http://www.w3.org/2000/svg" xmlns:xlink="http://www.w3.org/1999/xlink">
	<desc>
			Created with Pixso.
	</desc>
	<defs>
		<clipPath id="clip1_388">
			<rect id="Frame 18625244" rx="-0.500000" width="47.000000" height="47.000000" transform="translate(31.500000 31.500000)" fill="white" fill-opacity="0"/>
		</clipPath>
	</defs>
	<g opacity="0.050000">
		<circle id="Ellipse 1" cx="55.000000" cy="55.000000" r="55.000000" fill="#000000" fill-opacity="1.000000"/>
	</g>
	<g opacity="0.900000">
		<rect id="Frame 18625244" rx="-0.500000" width="47.000000" height="47.000000" transform="translate(31.500000 31.500000)" fill="#FFFFFF" fill-opacity="0"/>
		<g clip-path="url(#clip1_388)">
			<path id="Vector" d="M32.7 59.93L33.44 59.19C34.03 58.6 34.78 58.29 35.55 58.25L33.02 55.73C32.4 55.1 32.08 54.28 32.08 53.46L32.08 53.45L32.08 53.45C32.08 52.62 32.4 51.8 33.02 51.17L34.42 49.78C35.04 49.15 35.87 48.84 36.69 48.84C37.52 48.83 38.34 49.15 38.97 49.78L45.8 56.6L56.6 45.8L49.78 38.97C49.15 38.35 48.84 37.52 48.84 36.7L48.84 36.7L48.84 36.69L48.84 36.69C48.84 35.86 49.15 35.04 49.78 34.42L51.17 33.02C51.8 32.39 52.63 32.08 53.45 32.08C54.27 32.08 55.1 32.39 55.73 33.02L58.25 35.55C58.29 34.78 58.6 34.03 59.18 33.45L59.93 32.7C60.56 32.07 61.38 31.76 62.21 31.76C63.03 31.76 63.85 32.07 64.48 32.7L67.71 35.93L68.47 36.69L73.3 41.52L74.06 42.28L77.29 45.51C77.92 46.13 78.23 46.96 78.23 47.79L78.23 47.79C78.23 48.61 77.92 49.44 77.29 50.06L76.55 50.81C75.96 51.39 75.21 51.7 74.45 51.74L76.97 54.27C77.6 54.89 77.91 55.72 77.91 56.54L77.91 56.54C77.91 57.37 77.59 58.19 76.97 58.82L75.57 60.22C74.94 60.84 74.12 61.16 73.29 61.16C72.47 61.16 71.65 60.84 71.02 60.22L64.68 53.87L53.87 64.68L60.22 71.02C60.84 71.65 61.16 72.47 61.16 73.3L61.15 73.3C61.16 74.12 60.84 74.95 60.21 75.57L58.82 76.97C58.19 77.6 57.37 77.91 56.54 77.91C55.72 77.91 54.89 77.6 54.27 76.97L51.74 74.45C51.7 75.21 51.39 75.96 50.81 76.55L50.06 77.29C49.44 77.92 48.61 78.23 47.79 78.23C46.96 78.23 46.14 77.92 45.51 77.29L42.28 74.06L41.52 73.3L36.69 68.47L35.93 67.71L32.7 64.48C32.08 63.86 31.76 63.04 31.76 62.21L31.76 62.21L31.76 62.21L31.76 62.2C31.76 61.38 32.08 60.55 32.7 59.93ZM33.78 51.93L35.18 50.54C35.6 50.12 36.15 49.91 36.69 49.91C37.25 49.91 37.8 50.12 38.21 50.54L59.46 71.78C59.88 72.2 60.08 72.75 60.09 73.29L60.08 73.3C60.08 73.85 59.87 74.39 59.45 74.81L58.06 76.21C57.64 76.63 57.09 76.84 56.54 76.84C55.99 76.84 55.44 76.63 55.02 76.21L33.78 54.97C33.36 54.55 33.15 54 33.15 53.45L33.15 53.45C33.15 52.9 33.36 52.35 33.78 51.93ZM33.46 60.69L34.2 59.94C34.62 59.53 35.17 59.32 35.72 59.32C36.27 59.32 36.82 59.53 37.24 59.94L50.05 72.75C50.47 73.17 50.67 73.72 50.68 74.27L50.67 74.27C50.67 74.82 50.46 75.37 50.05 75.79L49.3 76.53C48.89 76.95 48.34 77.16 47.79 77.16C47.24 77.16 46.69 76.95 46.27 76.53L33.46 63.72C33.04 63.3 32.83 62.75 32.83 62.21L32.83 62.2C32.83 61.65 33.04 61.11 33.46 60.69ZM59.94 34.2L60.69 33.46C61.11 33.04 61.66 32.83 62.21 32.83C62.76 32.83 63.31 33.04 63.72 33.46L76.53 46.27C76.95 46.68 77.16 47.23 77.16 47.78L77.16 47.79C77.16 48.33 76.95 48.89 76.53 49.3L75.79 50.05C75.37 50.46 74.82 50.67 74.27 50.67C73.72 50.67 73.17 50.46 72.75 50.05L59.95 37.24C59.53 36.82 59.32 36.27 59.32 35.72L59.32 35.72C59.32 35.17 59.53 34.62 59.94 34.2ZM50.54 35.18L51.93 33.78C52.35 33.36 52.9 33.15 53.45 33.15C54 33.15 54.55 33.36 54.97 33.78L72 50.81L76.21 55.02C76.63 55.44 76.84 55.99 76.84 56.54L76.84 56.54C76.84 57.09 76.63 57.64 76.21 58.06L74.81 59.45C74.4 59.87 73.85 60.08 73.3 60.08C72.75 60.08 72.2 59.87 71.78 59.46L50.54 38.21C50.12 37.79 49.91 37.24 49.91 36.7L49.91 36.69C49.91 36.14 50.12 35.59 50.54 35.18ZM46.73 57.18L52.05 51.87L57.36 46.55L63.92 53.11L53.29 63.74L46.73 57.18Z" fill="#B01736" fill-opacity="1.000000" fill-rule="evenodd"/>
			<path id="Vector" d="M33.75 58.43Q33.43 58.63 33.16 58.9L32.42 59.65Q32.15 59.91 31.95 60.22Q31.76 60.51 31.63 60.84Q31.51 61.14 31.44 61.45Q31.38 61.74 31.37 62.04L31.19 62.21L31.37 62.38Q31.38 62.68 31.44 62.98Q31.51 63.28 31.63 63.57Q31.76 63.9 31.95 64.19Q32.15 64.5 32.42 64.76L35.65 68L36.41 68.76L41.24 73.58L41.99 74.34L45.23 77.58Q45.49 77.84 45.8 78.04Q46.09 78.23 46.43 78.37Q46.72 78.49 47.03 78.55Q47.4 78.63 47.79 78.63Q48.16 78.63 48.52 78.56Q48.84 78.49 49.15 78.37Q49.48 78.24 49.77 78.05Q50.08 77.84 50.35 77.57L51.09 76.83Q51.36 76.56 51.56 76.25Q51.72 76 51.84 75.73Q51.94 75.51 52.01 75.28L53.98 77.25Q54.26 77.53 54.58 77.73Q54.86 77.92 55.18 78.05Q55.48 78.17 55.8 78.23Q56.16 78.31 56.54 78.31Q56.92 78.31 57.27 78.24Q57.6 78.17 57.9 78.05Q58.22 77.92 58.5 77.74Q58.82 77.53 59.1 77.25L60.5 75.86Q60.77 75.58 60.98 75.26Q61.16 74.98 61.29 74.66Q61.42 74.35 61.48 74.02Q61.54 73.75 61.55 73.47L61.56 73.46L61.56 73.3Q61.56 72.9 61.48 72.53Q61.41 72.23 61.29 71.93Q61.16 71.62 60.98 71.34Q60.78 71.01 60.5 70.74L54.44 64.68L64.68 54.44L70.74 60.5Q71.02 60.78 71.35 60.99Q71.63 61.17 71.93 61.29Q72.24 61.42 72.56 61.48Q72.92 61.56 73.29 61.56Q73.68 61.56 74.06 61.48Q74.36 61.41 74.66 61.29Q74.97 61.17 75.25 60.99Q75.57 60.78 75.85 60.5L77.25 59.1Q77.52 58.83 77.73 58.52Q77.91 58.23 78.04 57.91Q78.16 57.62 78.23 57.32Q78.29 57.02 78.3 56.71L78.31 56.71L78.31 56.54Q78.31 56.15 78.23 55.77Q78.16 55.47 78.05 55.18Q77.92 54.86 77.73 54.57Q77.53 54.26 77.25 53.98L75.28 52.01Q75.5 51.94 75.73 51.84Q76.01 51.72 76.27 51.55Q76.57 51.35 76.83 51.09L77.57 50.35Q77.84 50.08 78.05 49.77Q78.23 49.48 78.37 49.15Q78.49 48.84 78.56 48.51Q78.63 48.16 78.63 47.79L78.63 47.74L78.63 47.74Q78.63 47.39 78.56 47.05Q78.49 46.73 78.37 46.42Q78.23 46.09 78.04 45.8Q77.84 45.49 77.58 45.23L74.34 41.99L73.58 41.23L68.76 36.41L68 35.65L64.76 32.42Q64.49 32.14 64.16 31.93Q63.88 31.75 63.57 31.62Q63.26 31.5 62.95 31.44Q62.58 31.36 62.21 31.36Q61.82 31.36 61.45 31.44Q61.14 31.5 60.84 31.62Q60.53 31.75 60.25 31.93Q59.93 32.14 59.65 32.42L58.9 33.16Q58.65 33.41 58.45 33.71Q58.28 33.97 58.15 34.27Q58.05 34.49 57.99 34.72L56.01 32.74Q55.73 32.46 55.41 32.26Q55.13 32.07 54.81 31.94Q54.5 31.82 54.17 31.75Q53.82 31.68 53.45 31.68Q53.07 31.68 52.71 31.76Q52.39 31.82 52.09 31.94Q51.77 32.07 51.49 32.25Q51.17 32.46 50.89 32.74L49.49 34.13Q49.23 34.4 49.02 34.71Q48.84 35 48.7 35.33Q48.59 35.61 48.52 35.9Q48.46 36.21 48.44 36.53L48.44 36.53L48.44 36.7Q48.44 37.09 48.52 37.46Q48.58 37.77 48.7 38.06Q48.83 38.38 49.02 38.67Q49.22 38.98 49.49 39.25L56.04 45.8L45.8 56.03L39.25 49.49Q38.97 49.21 38.65 49Q38.37 48.83 38.06 48.7Q37.74 48.57 37.41 48.5Q37.06 48.44 36.69 48.44Q36.32 48.44 35.96 48.51Q35.64 48.58 35.33 48.7Q35.02 48.83 34.74 49.01Q34.41 49.22 34.13 49.49L32.74 50.89Q32.47 51.15 32.27 51.46Q32.08 51.75 31.95 52.09Q31.83 52.37 31.77 52.67Q31.68 53.05 31.68 53.45L31.68 53.61L31.69 53.62Q31.7 53.9 31.75 54.17Q31.82 54.5 31.95 54.82Q32.08 55.14 32.26 55.42Q32.47 55.74 32.74 56.01L34.71 57.99Q34.49 58.05 34.27 58.15Q33.99 58.27 33.75 58.43ZM35.18 57.88L35.55 58.25C35.38 58.26 35.21 58.28 35.04 58.32C34.46 58.44 33.9 58.73 33.44 59.19L32.7 59.93C32.08 60.55 31.76 61.38 31.76 62.2L31.76 62.21L31.76 62.21L31.76 62.21C31.76 63.04 32.08 63.86 32.7 64.48L35.93 67.71L36.69 68.47L41.52 73.3L42.28 74.06L45.51 77.29C46.14 77.92 46.96 78.23 47.79 78.23C48.61 78.23 49.44 77.92 50.06 77.29L50.81 76.55C51.26 76.09 51.55 75.53 51.68 74.95C51.71 74.78 51.73 74.61 51.74 74.45L54.27 76.97C54.89 77.6 55.72 77.91 56.54 77.91C57.37 77.91 58.19 77.6 58.82 76.97L60.21 75.57C60.84 74.95 61.16 74.12 61.15 73.3L61.16 73.3C61.16 72.47 60.84 71.65 60.22 71.02L53.87 64.68L64.68 53.87L64.96 54.15L71.02 60.22C71.65 60.84 72.47 61.16 73.29 61.16C74.12 61.16 74.94 60.84 75.57 60.22L76.97 58.82C77.59 58.19 77.91 57.37 77.91 56.54L77.91 56.54C77.91 55.72 77.6 54.89 76.97 54.27L74.45 51.74C74.61 51.73 74.78 51.71 74.95 51.68C75.53 51.55 76.09 51.26 76.55 50.81L77.29 50.06C77.92 49.44 78.23 48.61 78.23 47.79L78.23 47.79C78.23 46.96 77.92 46.13 77.29 45.51L74.06 42.28L73.3 41.52L68.47 36.69L67.71 35.93L64.48 32.7C63.85 32.07 63.03 31.76 62.21 31.76C61.38 31.76 60.56 32.07 59.93 32.7L59.18 33.45C58.73 33.9 58.44 34.46 58.32 35.05C58.28 35.21 58.26 35.38 58.25 35.55L55.73 33.02C55.1 32.39 54.27 32.08 53.45 32.08C52.63 32.08 51.8 32.39 51.17 33.02L49.78 34.42C49.15 35.04 48.84 35.86 48.84 36.69L48.84 36.69L48.84 36.7L48.84 36.7C48.84 37.52 49.15 38.35 49.78 38.97L56.32 45.51L56.6 45.8L45.8 56.6L38.97 49.78C38.34 49.15 37.52 48.83 36.69 48.84C35.87 48.84 35.04 49.15 34.42 49.78L33.02 51.17C32.4 51.8 32.08 52.62 32.08 53.45L32.08 53.45L32.08 53.46C32.08 54.28 32.4 55.1 33.02 55.73L35.18 57.88ZM76.84 56.54L76.84 56.54C76.84 55.99 76.63 55.44 76.21 55.02L72 50.81L54.97 33.78C54.55 33.36 54 33.15 53.45 33.15C52.9 33.15 52.35 33.36 51.93 33.78L50.54 35.18C50.12 35.59 49.91 36.14 49.91 36.69L49.91 36.7C49.91 37.24 50.12 37.79 50.54 38.21L71.78 59.46C72.2 59.87 72.75 60.08 73.3 60.08C73.85 60.08 74.4 59.87 74.81 59.45L76.21 58.06C76.63 57.64 76.84 57.09 76.84 56.54ZM76.44 56.48Q76.43 56.32 76.4 56.17Q76.37 56.03 76.31 55.88Q76.25 55.74 76.17 55.6Q76.07 55.44 75.93 55.31L71.71 51.09L54.69 34.06Q54.56 33.93 54.41 33.84Q54.27 33.75 54.11 33.68Q53.97 33.62 53.82 33.59Q53.64 33.55 53.45 33.55Q53.25 33.55 53.06 33.6Q52.92 33.63 52.79 33.68Q52.64 33.74 52.5 33.83Q52.35 33.93 52.22 34.06L50.82 35.46Q50.68 35.59 50.58 35.75Q50.5 35.88 50.44 36.04Q50.37 36.19 50.34 36.36Q50.31 36.52 50.31 36.69L50.31 36.7Q50.31 36.87 50.34 37.04Q50.37 37.2 50.43 37.35Q50.49 37.5 50.58 37.63Q50.68 37.79 50.82 37.93L72.06 59.17Q72.2 59.31 72.35 59.41Q72.49 59.49 72.64 59.55Q72.76 59.6 72.88 59.63Q73.08 59.68 73.3 59.68Q73.47 59.68 73.64 59.65Q73.8 59.62 73.95 59.55Q74.1 59.49 74.24 59.41Q74.4 59.31 74.53 59.17L75.93 57.77Q76.07 57.63 76.18 57.46Q76.25 57.34 76.31 57.2Q76.37 57.05 76.4 56.9Q76.44 56.73 76.44 56.54L76.44 56.48L76.44 56.48ZM60.08 73.3L60.09 73.29C60.08 72.75 59.88 72.2 59.46 71.78L38.21 50.54C37.8 50.12 37.25 49.91 36.69 49.91C36.15 49.91 35.6 50.12 35.18 50.54L33.78 51.93C33.36 52.35 33.15 52.9 33.15 53.45L33.15 53.45C33.15 54 33.36 54.55 33.78 54.97L55.02 76.21C55.44 76.63 55.99 76.84 56.54 76.84C57.09 76.84 57.64 76.63 58.06 76.21L59.45 74.81C59.87 74.39 60.08 73.85 60.08 73.3ZM33.56 53.36L33.55 53.45Q33.55 53.62 33.58 53.78Q33.62 53.95 33.68 54.11Q33.74 54.25 33.82 54.38Q33.92 54.54 34.06 54.68L55.31 75.93Q55.44 76.06 55.6 76.16Q55.73 76.25 55.88 76.31Q56 76.36 56.13 76.39Q56.33 76.44 56.54 76.44Q56.72 76.44 56.89 76.4Q57.05 76.37 57.2 76.31Q57.35 76.25 57.48 76.16Q57.64 76.06 57.78 75.93L59.17 74.53Q59.32 74.38 59.43 74.2Q59.5 74.08 59.56 73.95Q59.62 73.8 59.65 73.64Q59.68 73.47 59.68 73.3L59.68 73.23L59.68 73.23Q59.68 73.08 59.65 72.93Q59.62 72.78 59.56 72.64Q59.5 72.49 59.42 72.36Q59.31 72.2 59.17 72.06L37.93 50.82Q37.79 50.68 37.63 50.58Q37.5 50.49 37.35 50.44Q37.21 50.38 37.06 50.35Q36.88 50.31 36.7 50.31Q36.49 50.31 36.29 50.35Q36.16 50.38 36.04 50.44Q35.89 50.49 35.76 50.58Q35.6 50.68 35.46 50.82L34.06 52.21Q33.92 52.35 33.82 52.51Q33.74 52.65 33.68 52.79Q33.62 52.93 33.59 53.08Q33.56 53.22 33.56 53.36ZM77.16 47.79L77.16 47.78C77.16 47.23 76.95 46.68 76.53 46.27L63.72 33.46C63.31 33.04 62.76 32.83 62.21 32.83C61.66 32.83 61.11 33.04 60.69 33.46L59.94 34.2C59.53 34.62 59.32 35.17 59.32 35.72L59.32 35.72C59.32 36.27 59.53 36.82 59.95 37.24L72.75 50.05C73.17 50.46 73.72 50.67 74.27 50.67C74.82 50.67 75.37 50.46 75.79 50.05L76.53 49.3C76.95 48.89 77.16 48.33 77.16 47.79ZM59.72 35.68L59.72 35.68L59.72 35.72Q59.72 35.89 59.75 36.06Q59.78 36.22 59.84 36.38Q59.9 36.51 59.97 36.63Q60.08 36.8 60.23 36.95L73.04 49.76Q73.17 49.89 73.32 49.99Q73.46 50.08 73.61 50.15Q73.74 50.2 73.88 50.23Q74.07 50.27 74.27 50.27Q74.44 50.27 74.6 50.24Q74.77 50.21 74.93 50.15Q75.08 50.08 75.22 50Q75.37 49.9 75.51 49.76L76.25 49.02Q76.38 48.89 76.48 48.73Q76.57 48.6 76.63 48.44Q76.69 48.29 76.73 48.13Q76.76 47.96 76.76 47.79L76.76 47.71Q76.75 47.55 76.72 47.4Q76.69 47.26 76.63 47.13Q76.57 46.97 76.48 46.83Q76.38 46.68 76.25 46.55L63.44 33.74Q63.31 33.61 63.16 33.51Q63.02 33.42 62.87 33.36Q62.73 33.3 62.59 33.27Q62.4 33.23 62.21 33.23Q62.02 33.23 61.85 33.27Q61.69 33.3 61.55 33.36Q61.4 33.42 61.27 33.5Q61.11 33.61 60.97 33.74L60.23 34.49Q60.08 34.63 59.98 34.8Q59.9 34.92 59.84 35.06Q59.78 35.22 59.75 35.37Q59.72 35.52 59.72 35.68ZM50.67 74.27L50.68 74.27C50.67 73.72 50.47 73.17 50.05 72.75L37.24 59.94C36.82 59.53 36.27 59.32 35.72 59.32C35.17 59.32 34.62 59.53 34.2 59.94L33.46 60.69C33.04 61.11 32.83 61.65 32.83 62.2L32.83 62.21C32.83 62.75 33.04 63.3 33.46 63.72L46.27 76.53C46.69 76.95 47.24 77.16 47.79 77.16C48.34 77.16 48.89 76.95 49.3 76.53L50.05 75.79C50.46 75.37 50.67 74.82 50.67 74.27ZM33.23 62.23Q33.23 62.39 33.27 62.55Q33.3 62.71 33.36 62.86Q33.42 63.01 33.5 63.14Q33.6 63.3 33.74 63.44L46.55 76.25Q46.69 76.38 46.84 76.48Q46.98 76.57 47.13 76.63Q47.26 76.68 47.39 76.71Q47.58 76.76 47.79 76.76Q47.97 76.76 48.15 76.72Q48.3 76.69 48.44 76.63Q48.6 76.57 48.73 76.48Q48.89 76.38 49.02 76.25L49.76 75.5Q49.9 75.37 50 75.22Q50.08 75.08 50.15 74.93Q50.21 74.78 50.24 74.62Q50.27 74.45 50.27 74.27L50.27 74.2Q50.27 74.04 50.23 73.88Q50.2 73.75 50.15 73.61Q50.08 73.46 49.99 73.32Q49.9 73.17 49.77 73.04L36.96 60.23Q36.82 60.09 36.67 59.99Q36.53 59.91 36.38 59.84Q36.24 59.79 36.1 59.76Q35.91 59.72 35.72 59.72Q35.54 59.72 35.36 59.75Q35.21 59.79 35.06 59.84Q34.92 59.9 34.78 59.99Q34.62 60.09 34.49 60.23L33.74 60.97Q33.6 61.11 33.49 61.28Q33.42 61.41 33.36 61.55Q33.29 61.71 33.26 61.88Q33.23 62.04 33.23 62.2L33.23 62.22L33.23 62.23ZM63.92 53.11L57.36 46.55L46.73 57.18L53.29 63.74L63.92 53.11ZM47.3 57.18L53.29 63.17L63.35 53.11L57.36 47.12L47.3 57.18Z" fill="#B01736" fill-opacity="1.000000" fill-rule="evenodd"/>
		</g>
	</g>
</svg>
