<svg width="110.000000" height="110.000000" viewBox="0 0 110 110" fill="none" xmlns="http://www.w3.org/2000/svg" xmlns:xlink="http://www.w3.org/1999/xlink">
	<desc>
			Created with Pixso.
	</desc>
	<defs/>
	<g opacity="0.050000">
		<circle id="Ellipse 1" cx="55.000000" cy="55.000000" r="55.000000" fill="#000000" fill-opacity="1.000000"/>
	</g>
	<g opacity="0.900000">
		<path id="Vector" d="M72.61 31C72.17 31 71.75 31.18 71.43 31.49L65.84 37.08C65.52 37.4 65.34 37.83 65.34 38.28C65.34 38.73 65.52 39.17 65.84 39.49L66.11 39.76C65.51 40.39 64.73 40.82 63.88 41C63.02 41.18 62.14 41.09 61.33 40.75C60.26 40.29 59.08 40.17 57.94 40.39C56.8 40.61 55.75 41.17 54.93 41.99L54.27 42.64C53.52 41.8 52.52 41.2 51.41 40.94C49.03 40.52 46.59 40.52 44.22 40.96C44.82 40.29 44.8 39.26 44.16 38.62L38.56 33.03C37.89 32.37 36.81 32.37 36.14 33.03L22.5 46.65C21.83 47.32 21.83 48.4 22.5 49.06L28.09 54.65C28.76 55.31 29.84 55.31 30.51 54.65L30.75 54.41C32.19 55.99 33.33 57.83 34.1 59.82C34.99 61.46 36.25 62.87 37.76 63.95C37.2 64.62 36.94 65.5 37.05 66.36C37.15 67.23 37.62 68.02 38.33 68.53C39.03 69.04 39.92 69.24 40.78 69.07C40.56 69.79 40.59 70.57 40.89 71.26C41.18 71.95 41.71 72.52 42.39 72.86C43.06 73.19 43.84 73.27 44.57 73.09C44.34 73.99 44.52 74.94 45.06 75.69C45.6 76.45 46.45 76.93 47.37 77C48.3 77.08 49.21 76.75 49.86 76.09L50.16 75.8C50.15 76.64 50.48 77.45 51.07 78.05C51.66 78.65 52.46 78.99 53.31 78.99C54.15 79 54.96 78.67 55.55 78.07L58.02 75.61C58.12 75.52 58.2 75.42 58.29 75.31C58.92 75.76 59.71 75.95 60.48 75.86C61.25 75.77 61.96 75.39 62.48 74.8C62.99 74.22 63.27 73.46 63.25 72.68L63.68 73.11C64.4 73.83 65.42 74.16 66.43 73.99C67.44 73.83 68.3 73.19 68.75 72.27C69.2 71.36 69.18 70.29 68.7 69.39C69.64 69.47 70.56 69.12 71.22 68.45C71.87 67.77 72.19 66.84 72.09 65.91L75.68 62.34C77.24 60.78 78.19 58.71 78.36 56.51C78.46 55.2 78.68 53.9 79 52.63L79.49 53.11C80.15 53.78 81.23 53.78 81.9 53.11L87.5 47.53C88.16 46.86 88.16 45.79 87.5 45.12L73.85 31.5C73.52 31.17 73.07 30.99 72.61 31L72.61 31ZM72.63 31.88C72.85 31.88 73.06 31.97 73.21 32.12L86.86 45.74C87.01 45.89 87.1 46.1 87.1 46.32C87.1 46.53 87.01 46.74 86.86 46.89L81.27 52.48C81.12 52.63 80.91 52.72 80.69 52.72C80.47 52.72 80.27 52.63 80.11 52.48L66.46 38.86C66.14 38.54 66.14 38.02 66.46 37.71L72.06 32.12C72.21 31.97 72.41 31.89 72.63 31.88ZM37.34 33.42C37.56 33.42 37.77 33.5 37.93 33.66L43.52 39.25C43.84 39.56 43.84 40.08 43.52 40.39L29.87 54.01C29.72 54.17 29.51 54.25 29.3 54.25C29.08 54.25 28.87 54.17 28.72 54.01L23.13 48.43C22.97 48.28 22.89 48.07 22.89 47.86C22.89 47.64 22.97 47.43 23.13 47.28L36.78 33.66C36.93 33.51 37.13 33.42 37.34 33.42ZM66.73 40.39L78.27 51.89C77.86 53.38 77.59 54.9 77.47 56.43C77.32 58.42 76.46 60.29 75.05 61.7L71.82 64.92C71.66 64.58 71.45 64.28 71.18 64.02L57.76 50.62C59.61 50.73 61.44 50.25 62.98 49.23C63.17 49.09 63.21 48.83 63.08 48.63C62.96 48.44 62.7 48.38 62.5 48.49C60.67 49.69 58.41 50.05 56.3 49.48C55.71 49.33 55.08 49.49 54.65 49.92L48.49 56.07C47.92 56.62 47.09 56.83 46.32 56.62C45.55 56.41 44.94 55.81 44.73 55.03C44.52 54.26 44.73 53.44 45.29 52.86L55.56 42.62C56.25 41.92 57.14 41.45 58.11 41.27C59.08 41.08 60.08 41.18 60.98 41.57C61.95 41.98 63.02 42.08 64.04 41.87C65.07 41.66 66.01 41.14 66.73 40.39ZM48.74 41.54C49.58 41.58 50.41 41.67 51.23 41.82C52.17 42.04 53.01 42.55 53.64 43.27L44.66 52.24C43.87 53.03 43.57 54.19 43.87 55.27C44.16 56.34 45.01 57.19 46.09 57.48C47.17 57.77 48.32 57.47 49.12 56.69L55.28 50.55C55.43 50.4 55.64 50.31 55.86 50.31C56.07 50.31 56.28 50.4 56.43 50.55L70.55 64.64C71.11 65.22 71.33 66.04 71.11 66.82C70.9 67.59 70.3 68.19 69.53 68.4C68.75 68.61 67.93 68.4 67.35 67.85L63.72 64.22C63.54 64.06 63.27 64.06 63.1 64.23C62.93 64.4 62.92 64.67 63.08 64.85L67.52 69.27C68.06 69.85 68.26 70.67 68.05 71.43C67.84 72.2 67.24 72.79 66.47 73C65.71 73.22 64.89 73.01 64.31 72.47L57.87 66.04C57.69 65.88 57.42 65.89 57.25 66.05C57.08 66.22 57.08 66.49 57.24 66.67L61.7 71.13C62.24 71.67 62.46 72.45 62.29 73.2C62.13 73.95 61.59 74.56 60.87 74.83C60.15 75.1 59.35 74.99 58.73 74.53C59.02 73.79 59.02 72.96 58.73 72.22C58.44 71.48 57.87 70.88 57.15 70.53C56.43 70.19 55.61 70.13 54.85 70.37C55 69.6 54.86 68.79 54.45 68.12C54.04 67.44 53.39 66.95 52.63 66.73C51.87 66.51 51.05 66.58 50.34 66.93C50.42 66.06 50.14 65.2 49.57 64.55C48.99 63.9 48.17 63.51 47.3 63.49C46.42 63.46 45.58 63.79 44.96 64.41L44.19 65.18C44.2 64.34 43.87 63.53 43.28 62.93C42.69 62.33 41.89 61.99 41.05 61.99C40.2 61.98 39.39 62.31 38.8 62.91L38.4 63.3C36.96 62.3 35.77 60.98 34.91 59.45C34.1 57.35 32.9 55.43 31.39 53.77L43.05 42.13C44.91 41.65 46.83 41.45 48.75 41.54L48.74 41.54ZM40.92 62.88C41.54 62.85 42.13 63.07 42.58 63.49C43.03 63.91 43.28 64.49 43.29 65.1C43.3 65.71 43.06 66.3 42.63 66.74L41.79 67.57C41.21 68.11 40.39 68.31 39.63 68.1C38.87 67.89 38.27 67.29 38.06 66.53C37.84 65.77 38.04 64.95 38.58 64.38L39.42 63.54C39.82 63.14 40.36 62.9 40.92 62.88ZM47.23 64.41C47.81 64.43 48.37 64.68 48.78 65.1C49.19 65.52 49.42 66.08 49.42 66.66C49.43 67.25 49.2 67.81 48.8 68.23L45.4 71.63C44.82 72.17 44 72.37 43.24 72.15C42.48 71.94 41.88 71.35 41.67 70.59C41.46 69.83 41.66 69.01 42.2 68.43L45.59 65.04C46.03 64.62 46.62 64.39 47.23 64.41ZM51.79 67.52C52.38 67.54 52.94 67.79 53.34 68.21C53.75 68.63 53.98 69.2 53.98 69.78C53.98 70.37 53.76 70.93 53.35 71.35L51.09 73.61L49.24 75.46C48.66 76.03 47.83 76.26 47.04 76.05C46.26 75.84 45.65 75.23 45.44 74.45C45.23 73.66 45.45 72.83 46.03 72.26L50.15 68.15C50.59 67.73 51.18 67.5 51.79 67.52ZM55.82 71.16C56.41 71.18 56.96 71.42 57.37 71.84C57.78 72.26 58.01 72.82 58.01 73.41C58.02 73.99 57.79 74.56 57.39 74.98L54.93 77.44C54.35 78.01 53.52 78.22 52.74 78.01C51.96 77.8 51.35 77.2 51.14 76.42C50.93 75.64 51.15 74.81 51.72 74.24L54.18 71.78C54.62 71.36 55.21 71.14 55.82 71.16Z" fill="#B01736" fill-opacity="1.000000" fill-rule="nonzero"/>
		<path id="Vector" d="M71.78 30.66Q71.4 30.82 71.08 31.14L71.08 31.14L65.48 36.72Q65.16 37.04 65 37.43Q64.84 37.82 64.84 38.28Q64.84 38.74 65 39.12Q65.13 39.46 65.39 39.74Q65.14 39.95 64.86 40.11Q64.36 40.39 63.77 40.51Q63.2 40.63 62.64 40.57Q62.08 40.52 61.53 40.29Q60.64 39.91 59.72 39.81Q58.8 39.71 57.85 39.9Q56.89 40.08 56.07 40.52Q55.26 40.95 54.57 41.63L54.28 41.93Q53.8 41.47 53.25 41.14Q52.46 40.68 51.52 40.46L51.51 40.45L51.5 40.45Q49.63 40.12 47.76 40.13Q46.47 40.13 45.19 40.3Q45.27 40.03 45.27 39.76Q45.25 39 44.51 38.27L38.91 32.68Q38.13 31.9 37.35 31.9Q36.57 31.9 35.79 32.68L22.14 46.3Q21.82 46.62 21.66 47.01Q21.5 47.4 21.5 47.86Q21.5 48.31 21.66 48.7Q21.82 49.09 22.14 49.42L27.74 55Q28.52 55.78 29.3 55.78Q30.01 55.78 30.72 55.13Q31.57 56.12 32.25 57.22Q33.06 58.53 33.63 60L33.64 60.04L33.66 60.07Q34.37 61.35 35.32 62.43Q36.11 63.32 37.07 64.06Q36.8 64.48 36.66 64.94Q36.45 65.64 36.55 66.42Q36.65 67.21 37.02 67.84Q37.39 68.47 38.03 68.93Q38.67 69.4 39.39 69.56Q39.76 69.64 40.15 69.64Q40.12 69.93 40.13 70.21Q40.16 70.84 40.42 71.46Q40.69 72.08 41.12 72.54Q41.56 73 42.17 73.3Q42.77 73.6 43.4 73.67Q43.68 73.7 43.97 73.69Q43.94 74.13 44.02 74.54Q44.16 75.3 44.66 75.98Q45.15 76.67 45.81 77.05Q46.48 77.43 47.33 77.5Q48.18 77.57 48.9 77.31Q49.37 77.13 49.79 76.82Q49.84 77.01 49.91 77.2Q50.17 77.85 50.71 78.4Q51.24 78.94 51.89 79.22Q52.54 79.49 53.3 79.49Q54.07 79.5 54.72 79.23Q55.37 78.96 55.91 78.43L58.37 75.97Q58.38 75.96 58.38 75.96Q58.78 76.18 59.21 76.28Q59.84 76.44 60.54 76.36Q61.23 76.27 61.81 75.97Q62.39 75.66 62.85 75.13Q63.32 74.6 63.54 73.99Q63.59 73.86 63.62 73.73Q64.16 74.18 64.78 74.38Q65.58 74.64 66.51 74.48Q67.44 74.33 68.12 73.83Q68.78 73.33 69.2 72.5Q69.61 71.65 69.6 70.82Q69.59 70.35 69.45 69.88Q69.87 69.83 70.25 69.69Q70.98 69.41 71.58 68.8Q72.18 68.18 72.43 67.44Q72.65 66.82 72.61 66.1L76.03 62.69Q77.31 61.41 78.02 59.86Q78.72 58.33 78.86 56.54Q78.94 55.52 79.11 54.51Q79.19 54.06 79.28 53.61Q79.99 54.24 80.69 54.24Q81.47 54.25 82.25 53.47L87.85 47.88Q88.17 47.56 88.33 47.17Q88.5 46.78 88.5 46.32Q88.5 45.87 88.33 45.48Q88.17 45.09 87.85 44.77L74.2 31.15Q73.87 30.82 73.48 30.66Q73.29 30.58 73.08 30.54L73.08 30.49L72.61 30.5Q72.16 30.5 71.78 30.66ZM72.61 31L72.61 31C72.55 31 72.49 31 72.44 31.01C72.33 31.02 72.22 31.04 72.12 31.08C71.86 31.16 71.62 31.3 71.43 31.49L65.84 37.08C65.52 37.4 65.34 37.83 65.34 38.28C65.34 38.73 65.52 39.17 65.84 39.49L66.11 39.76C66.06 39.81 66.02 39.85 65.97 39.9C65.9 39.97 65.82 40.04 65.74 40.1C65.21 40.55 64.57 40.86 63.88 41C63.02 41.18 62.14 41.09 61.33 40.75C60.26 40.29 59.08 40.17 57.94 40.39C56.8 40.61 55.75 41.17 54.93 41.99L54.63 42.29L54.27 42.64C54.16 42.52 54.04 42.4 53.92 42.28C53.22 41.63 52.35 41.16 51.41 40.94C49.27 40.56 47.08 40.53 44.94 40.84C44.7 40.88 44.46 40.92 44.22 40.96C44.37 40.79 44.48 40.6 44.55 40.4C44.77 39.79 44.63 39.1 44.16 38.62L38.56 33.03C37.89 32.37 36.81 32.37 36.14 33.03L22.5 46.65C21.83 47.32 21.83 48.4 22.5 49.06L28.09 54.65C28.72 55.28 29.72 55.31 30.39 54.75C30.43 54.72 30.47 54.69 30.51 54.65L30.75 54.41C30.86 54.53 30.97 54.65 31.08 54.78C32.37 56.28 33.39 57.98 34.1 59.82C34.91 61.31 36.03 62.61 37.36 63.65C37.49 63.76 37.63 63.86 37.76 63.95C37.66 64.08 37.56 64.21 37.48 64.35C37.12 64.95 36.96 65.66 37.05 66.36C37.15 67.23 37.62 68.02 38.33 68.53C38.89 68.94 39.56 69.15 40.25 69.13C40.43 69.13 40.61 69.11 40.78 69.07C40.73 69.25 40.69 69.42 40.66 69.6C40.59 70.16 40.66 70.73 40.89 71.26C41.18 71.95 41.71 72.52 42.39 72.86C42.9 73.11 43.47 73.22 44.04 73.18C44.22 73.16 44.39 73.13 44.57 73.09C44.53 73.26 44.5 73.44 44.48 73.62C44.43 74.35 44.63 75.09 45.06 75.69C45.6 76.45 46.45 76.93 47.37 77C48.21 77.07 49.05 76.8 49.68 76.26C49.75 76.21 49.81 76.15 49.86 76.09L50.16 75.8C50.16 76.02 50.18 76.23 50.22 76.44C50.34 77.05 50.63 77.6 51.07 78.05C51.66 78.65 52.46 78.99 53.31 78.99C54.15 79 54.96 78.67 55.55 78.07L58.02 75.61C58.12 75.52 58.2 75.42 58.29 75.31L58.29 75.31C58.92 75.76 59.71 75.95 60.48 75.86C61.25 75.77 61.96 75.39 62.48 74.8C62.85 74.38 63.09 73.87 63.2 73.33C63.24 73.12 63.26 72.9 63.25 72.68L63.68 73.11C63.7 73.12 63.72 73.14 63.73 73.16C64.45 73.84 65.45 74.15 66.43 73.99C67.44 73.83 68.3 73.19 68.75 72.27C69.12 71.53 69.17 70.68 68.92 69.9C68.86 69.73 68.79 69.56 68.7 69.39C68.89 69.41 69.08 69.41 69.26 69.39C70 69.32 70.69 68.99 71.22 68.45C71.87 67.77 72.19 66.84 72.09 65.91L75.68 62.34C77.24 60.78 78.19 58.71 78.36 56.51C78.45 55.39 78.62 54.29 78.86 53.2C78.9 53.01 78.95 52.82 79 52.63L79.41 53.04L79.49 53.11C80.15 53.78 81.23 53.78 81.9 53.11L87.5 47.53C88.16 46.86 88.16 45.79 87.5 45.12L73.85 31.5C73.52 31.17 73.07 30.99 72.61 31ZM57.87 66.04L64.31 72.47C64.89 73.01 65.71 73.22 66.47 73C67.24 72.79 67.84 72.2 68.05 71.43C68.26 70.67 68.06 69.85 67.52 69.27L63.08 64.85C62.92 64.67 62.93 64.4 63.1 64.23C63.27 64.06 63.54 64.06 63.72 64.22L67.35 67.85C67.93 68.4 68.75 68.61 69.53 68.4C70.3 68.19 70.9 67.59 71.11 66.82C71.33 66.04 71.11 65.22 70.55 64.64L56.43 50.55C56.28 50.4 56.07 50.31 55.86 50.31C55.64 50.31 55.43 50.4 55.28 50.55L49.12 56.69C48.32 57.47 47.17 57.77 46.09 57.48C45.01 57.19 44.16 56.34 43.87 55.27C43.57 54.19 43.87 53.03 44.66 52.24L53.64 43.27C53.01 42.55 52.17 42.04 51.23 41.82C50.42 41.67 49.59 41.58 48.76 41.54C48.76 41.54 48.75 41.54 48.75 41.54L48.74 41.54L48.75 41.54L48.74 41.54C48.74 41.54 48.73 41.54 48.73 41.54C46.82 41.45 44.9 41.65 43.05 42.13L31.39 53.77C32.9 55.43 34.1 57.35 34.91 59.45C35.77 60.98 36.96 62.3 38.4 63.3L38.8 62.91C39.39 62.31 40.2 61.98 41.05 61.99C41.89 61.99 42.69 62.33 43.28 62.93C43.72 63.38 44.01 63.93 44.13 64.54C44.17 64.75 44.19 64.96 44.19 65.18L44.66 64.71L44.96 64.41C45.58 63.79 46.42 63.46 47.3 63.49C48.17 63.51 48.99 63.9 49.57 64.55C50.02 65.06 50.29 65.71 50.35 66.38C50.36 66.56 50.36 66.75 50.34 66.93C50.51 66.85 50.68 66.78 50.86 66.73C51.43 66.56 52.05 66.56 52.63 66.73C53.39 66.95 54.04 67.44 54.45 68.12C54.76 68.64 54.92 69.23 54.91 69.83C54.9 70.01 54.88 70.19 54.85 70.37C55.02 70.32 55.2 70.28 55.37 70.25C55.98 70.17 56.6 70.27 57.15 70.53C57.87 70.88 58.44 71.48 58.73 72.22C59.02 72.96 59.02 73.79 58.73 74.53C59.35 74.99 60.15 75.1 60.87 74.83C61.59 74.56 62.13 73.95 62.29 73.2C62.46 72.45 62.24 71.67 61.7 71.13L57.24 66.67C57.08 66.49 57.08 66.22 57.25 66.05C57.42 65.89 57.69 65.88 57.87 66.04ZM59.33 74.31Q59.57 74.43 59.83 74.47Q60.25 74.53 60.7 74.36Q61.15 74.19 61.43 73.87Q61.7 73.56 61.8 73.09Q61.91 72.62 61.79 72.22Q61.68 71.82 61.34 71.48L56.88 67.02L56.87 67.01Q56.56 66.67 56.57 66.35Q56.58 66.02 56.9 65.7Q57.22 65.38 57.54 65.37Q57.87 65.37 58.2 65.67L58.21 65.68L64.66 72.11Q65.02 72.45 65.44 72.55Q65.86 72.66 66.34 72.52Q66.82 72.39 67.13 72.08Q67.43 71.78 67.57 71.3Q67.7 70.82 67.6 70.4Q67.5 69.98 67.16 69.62L62.72 65.19L62.72 65.19Q62.41 64.85 62.41 64.53Q62.42 64.2 62.74 63.87Q63.07 63.55 63.39 63.55Q63.72 63.54 64.06 63.85L64.06 63.86L67.7 67.49Q68.06 67.83 68.48 67.94Q68.91 68.05 69.39 67.92Q69.88 67.79 70.19 67.48Q70.5 67.17 70.63 66.68Q70.77 66.19 70.65 65.77Q70.55 65.35 70.2 65L56.08 50.91Q56.03 50.86 55.98 50.84Q55.92 50.81 55.86 50.81Q55.79 50.81 55.73 50.84Q55.68 50.86 55.63 50.91L49.47 57.05Q48.72 57.78 47.85 58.01Q46.97 58.24 45.96 57.96Q44.94 57.69 44.3 57.04Q43.66 56.4 43.39 55.4Q43.11 54.39 43.34 53.52Q43.57 52.63 44.3 51.88L52.94 43.27Q52.64 42.99 52.3 42.78Q51.77 42.46 51.13 42.31Q50.63 42.22 50.12 42.16Q49.42 42.07 48.72 42.04L48.72 42.04Q47.29 41.97 45.88 42.12Q44.58 42.26 43.31 42.58L32.07 53.79Q33.08 54.94 33.87 56.23Q34.75 57.65 35.37 59.23Q35.97 60.31 36.78 61.21Q37.48 62 38.35 62.65L38.44 62.55Q38.98 62.02 39.63 61.75Q40.28 61.48 41.05 61.49Q41.81 61.49 42.47 61.77Q43.11 62.04 43.64 62.58Q44.18 63.13 44.44 63.79Q44.5 63.95 44.55 64.11L44.61 64.05Q45.17 63.5 45.84 63.23Q46.52 62.96 47.31 62.99Q48.1 63.01 48.76 63.32Q49.42 63.63 49.94 64.22Q50.47 64.81 50.69 65.51Q50.8 65.85 50.84 66.21Q51.13 66.13 51.42 66.11Q52.08 66.05 52.77 66.25Q53.45 66.44 53.98 66.85Q54.5 67.25 54.87 67.86Q55.25 68.47 55.36 69.12Q55.41 69.43 55.41 69.74Q55.73 69.7 56.05 69.73Q56.72 69.77 57.37 70.08Q58.02 70.39 58.47 70.88Q58.93 71.37 59.2 72.04Q59.46 72.71 59.46 73.38Q59.46 73.85 59.33 74.31ZM58.28 51.14L57.76 50.62C58 50.63 58.24 50.64 58.48 50.63C60.08 50.6 61.64 50.11 62.98 49.23C63.17 49.09 63.21 48.83 63.08 48.63C62.96 48.44 62.7 48.38 62.5 48.49C60.67 49.69 58.41 50.05 56.3 49.48C55.71 49.33 55.08 49.49 54.65 49.92L48.49 56.07C47.92 56.62 47.09 56.83 46.32 56.62C45.55 56.41 44.94 55.81 44.73 55.03C44.52 54.26 44.73 53.44 45.29 52.86L55.56 42.62C56.25 41.92 57.14 41.45 58.11 41.27C59.08 41.08 60.08 41.18 60.98 41.57C61.95 41.98 63.02 42.08 64.04 41.87C65 41.67 65.89 41.21 66.59 40.53C66.64 40.48 66.69 40.43 66.73 40.39L67.09 40.74L78.27 51.89C77.86 53.38 77.59 54.9 77.47 56.43C77.32 58.42 76.46 60.29 75.05 61.7L72.19 64.55L71.82 64.92C71.74 64.76 71.66 64.61 71.56 64.47C71.45 64.31 71.32 64.16 71.18 64.02L58.28 51.14ZM58.96 51.12L71.54 63.66Q71.75 63.87 71.92 64.11L74.69 61.35Q75.72 60.32 76.3 59.07Q76.86 57.84 76.98 56.39Q77.06 55.35 77.23 54.33Q77.41 53.18 77.71 52.04L66.73 41.08Q66.28 41.48 65.76 41.77Q65.02 42.18 64.14 42.36Q63.29 42.54 62.45 42.46Q61.61 42.37 60.79 42.03Q60.16 41.76 59.51 41.69Q58.87 41.63 58.2 41.76Q57.54 41.89 56.96 42.19Q56.39 42.49 55.91 42.97L45.65 53.21Q45.3 53.57 45.19 54Q45.08 54.42 45.22 54.9Q45.35 55.38 45.65 55.69Q45.96 56 46.45 56.14Q46.95 56.27 47.38 56.16Q47.79 56.05 48.14 55.71L54.3 49.57Q54.75 49.12 55.28 48.98Q55.82 48.84 56.43 49Q57.99 49.42 59.44 49.19Q60.88 48.95 62.22 48.07L62.24 48.06L62.26 48.05Q62.64 47.84 62.95 47.92Q63.26 48 63.5 48.36Q63.74 48.72 63.69 49.04Q63.64 49.35 63.29 49.62L63.28 49.64L63.26 49.65Q62.01 50.47 60.63 50.84Q59.82 51.06 58.96 51.12ZM72.63 31.88C72.85 31.88 73.06 31.97 73.21 32.12L86.86 45.74C87.01 45.89 87.1 46.1 87.1 46.32C87.1 46.53 87.01 46.74 86.86 46.89L81.27 52.48C81.12 52.63 80.91 52.72 80.69 52.72C80.47 52.72 80.27 52.63 80.11 52.48L66.46 38.86C66.14 38.54 66.14 38.02 66.46 37.71L72.06 32.12C72.21 31.97 72.41 31.89 72.63 31.88ZM72.75 32.41Q72.81 32.43 72.86 32.48L72.86 32.48L86.51 46.1Q86.55 46.14 86.58 46.2Q86.6 46.25 86.6 46.32Q86.6 46.38 86.58 46.44Q86.55 46.5 86.51 46.54L80.92 52.12Q80.87 52.17 80.81 52.19Q80.76 52.22 80.69 52.22Q80.63 52.22 80.57 52.19Q80.51 52.17 80.47 52.12L66.82 38.5Q66.77 38.46 66.75 38.4Q66.72 38.35 66.72 38.28Q66.72 38.22 66.75 38.16Q66.77 38.11 66.82 38.06L72.41 32.48Q72.46 32.43 72.52 32.41Q72.57 32.38 72.63 32.38Q72.7 32.38 72.75 32.41ZM37.34 33.42C37.56 33.42 37.77 33.5 37.93 33.66L43.52 39.25C43.84 39.56 43.84 40.08 43.52 40.39L29.87 54.01C29.72 54.17 29.51 54.25 29.3 54.25C29.08 54.25 28.87 54.17 28.72 54.01L23.13 48.43C22.97 48.28 22.89 48.07 22.89 47.86C22.89 47.64 22.97 47.43 23.13 47.28L36.78 33.66C36.93 33.51 37.13 33.42 37.34 33.42ZM37.58 34.01L37.58 34.01L43.17 39.6Q43.28 39.71 43.28 39.82Q43.28 39.93 43.17 40.04L29.52 53.66Q29.47 53.71 29.42 53.73Q29.36 53.75 29.3 53.75Q29.23 53.75 29.17 53.73Q29.12 53.71 29.07 53.66L23.48 48.08Q23.43 48.03 23.41 47.97Q23.39 47.92 23.39 47.86Q23.39 47.79 23.41 47.74Q23.43 47.68 23.48 47.63L37.13 34.01Q37.18 33.97 37.23 33.94Q37.29 33.92 37.35 33.92Q37.41 33.92 37.47 33.94Q37.53 33.97 37.58 34.01ZM40.92 62.88C41.54 62.85 42.13 63.07 42.58 63.49C43.03 63.91 43.28 64.49 43.29 65.1C43.3 65.71 43.06 66.3 42.63 66.74L41.79 67.57C41.21 68.11 40.39 68.31 39.63 68.1C38.87 67.89 38.27 67.29 38.06 66.53C37.84 65.77 38.04 64.95 38.58 64.38L39.42 63.54C39.82 63.14 40.36 62.9 40.92 62.88ZM41.44 67.21L42.28 66.38Q42.54 66.12 42.67 65.8Q42.8 65.48 42.79 65.11Q42.79 64.74 42.65 64.42Q42.51 64.11 42.24 63.85Q41.97 63.6 41.64 63.48Q41.32 63.36 40.95 63.38Q40.6 63.39 40.31 63.52Q40.02 63.65 39.77 63.89L38.94 64.72Q38.61 65.08 38.51 65.5Q38.41 65.92 38.54 66.4Q38.67 66.87 38.98 67.17Q39.28 67.48 39.76 67.62Q40.24 67.75 40.67 67.65Q41.08 67.55 41.44 67.21ZM47.23 64.41C47.81 64.43 48.37 64.68 48.78 65.1C49.19 65.52 49.42 66.08 49.42 66.66C49.43 67.25 49.2 67.81 48.8 68.23L45.4 71.63C44.82 72.17 44 72.37 43.24 72.15C42.48 71.94 41.88 71.35 41.67 70.59C41.46 69.83 41.66 69.01 42.2 68.43L45.59 65.04C46.03 64.62 46.62 64.39 47.23 64.41ZM45.94 65.4L42.55 68.78Q42.22 69.14 42.12 69.56Q42.02 69.97 42.15 70.45Q42.28 70.92 42.59 71.23Q42.89 71.54 43.38 71.67Q43.85 71.81 44.28 71.7Q44.69 71.6 45.05 71.27L48.44 67.89Q48.69 67.63 48.81 67.32Q48.93 67.02 48.92 66.67Q48.92 66.32 48.8 66.01Q48.67 65.7 48.42 65.45L48.42 65.45Q48.17 65.19 47.87 65.06Q47.57 64.92 47.21 64.91Q46.84 64.9 46.52 65.02Q46.21 65.14 45.94 65.4ZM51.79 67.52C52.38 67.54 52.94 67.79 53.34 68.21C53.75 68.63 53.98 69.2 53.98 69.78C53.98 70.37 53.76 70.93 53.35 71.35L51.09 73.61L49.24 75.46C48.66 76.03 47.83 76.26 47.04 76.05C46.26 75.84 45.65 75.23 45.44 74.45C45.23 73.66 45.45 72.83 46.03 72.26L50.15 68.15C50.59 67.73 51.18 67.5 51.79 67.52ZM52.43 68.17Q52.74 68.3 52.99 68.56Q53.24 68.82 53.36 69.13Q53.48 69.43 53.48 69.78Q53.48 70.14 53.36 70.44Q53.24 70.75 52.99 71.01L50.74 73.26L48.88 75.1Q48.52 75.47 48.1 75.58Q47.67 75.69 47.17 75.56Q46.68 75.43 46.36 75.11Q46.05 74.8 45.92 74.32Q45.79 73.82 45.9 73.4Q46.02 72.97 46.38 72.61L50.5 68.51Q50.75 68.26 51.06 68.14Q51.39 68.01 51.78 68.02Q52.13 68.04 52.43 68.17ZM55.82 71.16C56.41 71.18 56.96 71.42 57.37 71.84C57.78 72.26 58.01 72.82 58.01 73.41C58.02 73.99 57.79 74.56 57.39 74.98L54.93 77.44C54.35 78.01 53.52 78.22 52.74 78.01C51.96 77.8 51.35 77.2 51.14 76.42C50.93 75.64 51.15 74.81 51.72 74.24L54.18 71.78C54.62 71.36 55.21 71.14 55.82 71.16ZM54.53 72.14L52.07 74.59Q51.72 74.95 51.6 75.38Q51.49 75.8 51.63 76.29Q51.76 76.78 52.07 77.09Q52.38 77.4 52.87 77.53Q53.37 77.67 53.79 77.55Q54.22 77.44 54.57 77.09L57.03 74.63Q57.27 74.38 57.39 74.07Q57.52 73.77 57.51 73.41Q57.51 73.06 57.39 72.76Q57.27 72.45 57.01 72.19L57.01 72.19Q56.77 71.94 56.47 71.8Q56.16 71.67 55.8 71.66Q55.44 71.64 55.12 71.76Q54.8 71.88 54.53 72.14Z" fill="#B01736" fill-opacity="1.000000" fill-rule="evenodd"/>
	</g>
</svg>
