<svg width="110.000000" height="110.000000" viewBox="0 0 110 110" fill="none" xmlns="http://www.w3.org/2000/svg" xmlns:xlink="http://www.w3.org/1999/xlink">
	<desc>
			Created with Pixso.
	</desc>
	<defs>
		<clipPath id="clip1_380">
			<rect id="Frame 18625242" rx="-0.500000" width="47.000000" height="47.000000" transform="translate(31.500000 31.500000)" fill="white" fill-opacity="0"/>
		</clipPath>
	</defs>
	<g opacity="0.050000">
		<circle id="Ellipse 1" cx="55.000000" cy="55.000000" r="55.000000" fill="#000000" fill-opacity="1.000000"/>
	</g>
	<g opacity="0.900000">
		<rect id="Frame 18625242" rx="-0.500000" width="47.000000" height="47.000000" transform="translate(31.500000 31.500000)" fill="#FFFFFF" fill-opacity="0"/>
		<g clip-path="url(#clip1_380)">
			<rect id="Rectangle 9052" x="39.199219" y="32.000000" rx="5.000000" width="31.599998" height="46.000000" stroke="#B01736" stroke-opacity="1.000000" stroke-width="2.000000"/>
			<path id="Rectangle 9053" d="M64.59 31L64.59 36C64.59 37.65 63.25 39 61.59 39L48.39 39C46.74 39 45.39 37.65 45.39 36L45.39 31L64.59 31ZM62.59 33L62.59 36C62.59 36.55 62.15 37 61.59 37L48.39 37C47.84 37 47.39 36.55 47.39 36L47.39 33L62.59 33Z" fill="#B01736" fill-opacity="1.000000" fill-rule="evenodd"/>
			<path id="Rectangle 9054" d="M50.19 70L59.79 70L59.79 72L50.19 72L50.19 70ZM50.21 71.98L50.19 72C49.63 72 49.19 71.56 49.19 71C49.19 70.44 49.63 70 50.19 70L50.21 70.01L50.21 71.98ZM59.77 70.01L59.79 70C60.35 70 60.79 70.44 60.79 71C60.79 71.56 60.35 72 59.79 72L59.77 71.98L59.77 70.01Z" fill="#B01736" fill-opacity="1.000000" fill-rule="evenodd"/>
		</g>
	</g>
</svg>
