<svg width="110.000000" height="110.000000" viewBox="0 0 110 110" fill="none" xmlns="http://www.w3.org/2000/svg" xmlns:xlink="http://www.w3.org/1999/xlink">
	<desc>
			Created with Pixso.
	</desc>
	<defs/>
	<g opacity="0.050000">
		<circle id="Ellipse 1" cx="55.000000" cy="55.000000" r="55.000000" fill="#000000" fill-opacity="1.000000"/>
	</g>
	<rect id="Rectangle 9064" x="57.937500" y="58.894531" rx="1.000000" width="9.000000" height="9.000000" stroke="#B01736" stroke-opacity="1.000000" stroke-width="2.000000"/>
	<path id="Vector" d="M70.93 52.23L70.93 77C70.93 77.55 70.48 78 69.93 78L40.14 78C39.59 78 39.14 77.55 39.14 77L39.14 66.11L39.14 52.23M44.14 78L44.14 59.89C44.14 59.34 44.59 58.89 45.14 58.89L52.14 58.89C52.7 58.89 53.14 59.34 53.14 59.89L53.14 78" stroke="#B01736" stroke-opacity="1.000000" stroke-width="2.000000"/>
	<path id="Rectangle 9063" d="M33.44 52C32.09 52 31.48 50.34 32.52 49.5L53.79 32.32C54.31 31.89 55.08 31.89 55.61 32.31L77.45 49.49C78.52 50.32 77.91 52 76.55 52L33.44 52Z" stroke="#B01736" stroke-opacity="1.000000" stroke-width="2.000000"/>
</svg>
